# Blender v2.79 (sub 0) OBJ File: 'demoMap.blend'
# www.blender.org
o Cylinder.001
v 1.717354 4.658123 0.955499
v -1.372121 5.124440 1.915433
v 0.011519 0.117901 -0.774776
v -0.961587 3.752148 0.583646
v 0.669375 0.146655 -0.380449
v -0.303732 3.780902 0.977973
v 0.696488 -0.115526 0.340398
v -0.276619 3.518721 1.698820
v 0.065745 -0.406461 0.666917
v -0.907361 3.227786 2.025340
v -0.592110 -0.435216 0.272590
v -1.565216 3.199032 1.631013
v -0.619223 -0.173035 -0.448257
v -1.592329 3.461213 0.910166
v -0.108552 -0.554738 -0.970451
v 1.277277 3.107137 -0.151820
v 0.402862 -0.856936 -0.484420
v 1.788691 2.804938 0.334211
v 0.219674 -0.952849 0.254726
v 1.605503 2.709026 1.073357
v -0.474929 -0.746563 0.507841
v 0.910900 2.915311 1.326472
v -0.986343 -0.444365 0.021811
v 0.399486 3.217510 0.840442
v -0.803155 -0.348452 -0.717335
v 0.582674 3.313422 0.101296
v -1.620904 3.946185 -1.534072
v 0.199922 -1.463391 -0.254145
v -1.151018 2.049114 -1.609609
v 0.882937 -1.144726 -0.109103
v -0.468003 2.367778 -1.464566
v 1.020625 -0.827374 0.576043
v -0.330315 2.685130 -0.779420
v 0.475298 -0.828688 1.116145
v -0.875642 2.683816 -0.239318
v -0.207717 -1.147353 0.971103
v -1.558657 2.365151 -0.384360
v -0.345405 -1.464704 0.285957
v -1.696344 2.047800 -1.069506
vt -0.275262 1.509813
vt 0.102121 1.789422
vt -0.328719 1.976439
vt -0.410473 -0.374598
vt -0.597491 -0.805437
vt -0.130864 -0.751980
vt -0.410475 0.634649
vt -1.284509 0.130023
vt -0.779881 0.635776
vt 0.229365 0.635782
vt -0.877100 -0.428055
vt 0.463560 0.130026
vt -0.706101 1.696831
vt -0.690081 0.002784
vt 0.463560 -0.879222
vt 0.229362 2.383844
vt 0.733984 1.509813
vt -0.223454 0.056240
vt -0.410475 -1.383844
vt -0.652644 1.230204
vt 0.056154 -0.321141
vt -1.284505 -0.879223
vt 0.155578 1.322794
vt -1.284509 1.509812
vt -0.221804 1.043185
vt -0.779886 2.383844
vt 1.338723 -0.374598
vt 1.059114 0.002784
vt 0.872096 -0.428055
vt 2.212754 -0.879222
vt 2.212755 0.130026
vt 1.151704 -0.805437
vt 1.618331 -0.751980
vt 1.338720 0.634649
vt 0.464687 0.130022
vt 1.525741 0.056240
vt 1.338720 -1.383844
vt 1.805349 -0.321141
vt 0.464690 -0.879224
vn 0.3517 0.0364 0.9354
vn 0.3416 0.7052 -0.6213
vn 0.4541 0.4161 -0.7879
vn 0.2469 -0.2995 0.9216
vn 0.8249 0.5405 0.1655
vn 0.9693 0.2405 0.0510
vn 0.9710 -0.0415 0.2353
vn 0.3990 0.1502 0.9046
vn 0.5152 -0.1756 0.8389
vn 0.6603 -0.0830 -0.7464
vn -0.5102 -0.0754 0.8567
vn -0.4541 -0.4161 0.7879
vn 0.7394 0.2394 -0.6292
vn -0.9936 0.0893 0.0699
vn -0.9693 -0.2405 -0.0510
vn 0.9072 -0.3825 0.1752
vn -0.5676 0.4796 -0.6692
vn -0.5152 0.1756 -0.8389
vn -0.4993 0.3952 0.7711
vn -0.6603 0.0830 0.7464
vn -0.7309 0.6761 -0.0934
vn -0.9072 0.3825 -0.1752
vn -0.1115 0.5982 -0.7936
vn -0.2469 0.2995 -0.9216
vn 0.4620 0.7531 0.4683
vn 0.6174 0.4784 0.6245
vn 0.7497 0.5301 -0.3962
vn 0.3066 -0.2377 -0.9217
vn 0.1706 0.0813 -0.9820
vn 0.9240 0.2407 -0.2972
vn -0.4047 0.5273 0.7471
vn -0.3066 0.2377 0.9217
vn -0.9838 0.0786 0.1613
vn -0.9240 -0.2407 0.2972
vn -0.6961 -0.1444 -0.7032
vn -0.6174 -0.4784 -0.6245
s off
f 1/1/1 22/2/1 20/3/1
f 2/4/2 6/5/2 4/6/2
f 4/6/3 5/7/3 3/8/3
f 20/3/4 21/9/4 19/10/4
f 2/4/5 8/11/5 6/5/5
f 6/5/6 7/12/6 5/7/6
f 1/1/7 20/3/7 18/13/7
f 2/4/8 10/14/8 8/11/8
f 7/12/9 10/14/9 9/15/9
f 15/16/10 18/13/10 17/17/10
f 2/4/11 12/18/11 10/14/11
f 10/14/12 11/19/12 9/15/12
f 1/1/13 18/13/13 16/20/13
f 2/4/14 14/21/14 12/18/14
f 12/18/15 13/22/15 11/19/15
f 18/13/16 19/10/16 17/17/16
f 2/4/17 4/6/17 14/21/17
f 14/21/18 3/8/18 13/22/18
f 1/1/19 24/23/19 22/2/19
f 22/2/20 23/24/20 21/9/20
f 1/1/21 26/25/21 24/23/21
f 24/23/22 25/26/22 23/24/22
f 1/1/23 16/20/23 26/25/23
f 25/26/24 16/20/24 15/16/24
f 27/27/25 35/28/25 33/29/25
f 33/29/26 34/30/26 32/31/26
f 27/27/27 33/29/27 31/32/27
f 29/33/28 30/34/28 28/35/28
f 27/27/29 31/32/29 29/33/29
f 31/32/30 32/31/30 30/34/30
f 27/27/31 37/36/31 35/28/31
f 35/28/32 36/37/32 34/30/32
f 27/27/33 39/38/33 37/36/33
f 37/36/34 38/39/34 36/37/34
f 27/27/35 29/33/35 39/38/35
f 39/38/36 28/35/36 38/39/36
f 4/6/3 6/5/3 5/7/3
f 20/3/4 22/2/4 21/9/4
f 6/5/6 8/11/6 7/12/6
f 7/12/9 8/11/9 10/14/9
f 15/16/10 16/20/10 18/13/10
f 10/14/12 12/18/12 11/19/12
f 12/18/15 14/21/15 13/22/15
f 18/13/16 20/3/16 19/10/16
f 14/21/18 4/6/18 3/8/18
f 22/2/20 24/23/20 23/24/20
f 24/23/22 26/25/22 25/26/22
f 25/26/24 26/25/24 16/20/24
f 33/29/26 35/28/26 34/30/26
f 29/33/28 31/32/28 30/34/28
f 31/32/30 33/29/30 32/31/30
f 35/28/32 37/36/32 36/37/32
f 37/36/34 39/38/34 38/39/34
f 39/38/36 29/33/36 28/35/36
