# Blender v2.79 (sub 0) OBJ File: 'demoScene.blend'
# www.blender.org
o Plane
v -32.000000 0.000000 32.000000
v 32.000000 0.000000 32.000000
v -32.000000 0.000000 -32.000000
v 32.000000 0.000000 -32.000000
v -32.000000 0.000000 0.000000
v 0.000000 0.000000 32.000000
v 32.000000 0.000000 0.000000
v 0.000000 0.000000 -32.000000
v 0.000000 0.000000 0.000000
vt 1.500000 -0.500000
vt -0.500000 1.500000
vt -0.500000 -0.500000
vt 1.500000 -0.500000
vt -0.500000 1.500000
vt -0.500000 -0.500000
vt 1.500000 -0.500000
vt -0.500000 1.500000
vt -0.500000 -0.500000
vt 1.500000 -0.500000
vt -0.500000 1.500000
vt -0.500000 -0.500000
vt 1.500000 1.500000
vt 1.500000 1.500000
vt 1.500000 1.500000
vt 1.500000 1.500000
vn 0.0000 1.0000 0.0000
s off
f 7/1/1 8/2/1 9/3/1
f 9/4/1 3/5/1 5/6/1
f 6/7/1 5/8/1 1/9/1
f 2/10/1 9/11/1 6/12/1
f 7/1/1 4/13/1 8/2/1
f 9/4/1 8/14/1 3/5/1
f 6/7/1 9/15/1 5/8/1
f 2/10/1 7/16/1 9/11/1
