# Blender v2.79 (sub 0) OBJ File: 'humalea.blend'
# www.blender.org
o Cube.002
v -0.060551 -0.512519 -0.000000
v -0.081917 0.512519 0.000000
v 0.000000 -0.512519 -0.060551
v 0.000000 0.512519 -0.081917
v 0.000000 -0.512519 0.060551
v 0.000000 0.512519 0.081917
v 0.060551 -0.512519 -0.000000
v 0.081917 0.512519 0.000000
v -0.100942 -0.655604 -0.000000
v 0.000000 -0.655604 -0.100942
v 0.000000 -0.655604 0.100942
v 0.100942 -0.655604 -0.000000
v 0.000000 -0.836016 0.000000
v -0.631493 0.512519 0.000000
v 0.631493 0.512519 0.000000
v -0.631493 0.630349 0.000000
v 0.000000 0.630349 -0.081917
v 0.000000 0.630349 0.081917
v 0.631493 0.630349 0.000000
v -0.170943 0.630349 0.000000
v 0.000000 0.630349 -0.044074
v 0.000000 0.630349 0.044074
v 0.170943 0.630349 0.000000
v -0.135465 4.194148 0.000000
v 0.000000 4.194148 -0.044074
v 0.000000 4.194148 0.044074
v 0.135465 4.194148 0.000000
v 0.000000 4.619241 0.000000
vt 1.000000 0.000000
vt 0.000000 1.000000
vt 0.000000 0.000000
vt 1.000000 0.000000
vt 0.000000 1.000000
vt 0.000000 0.000000
vt 1.000000 0.000000
vt 0.000000 1.000000
vt 0.000000 0.000000
vt 1.000000 0.000000
vt 0.000000 1.000000
vt 0.000000 0.000000
vt 1.000000 1.000000
vt 0.000000 1.000000
vt 0.000000 0.000000
vt 1.000000 1.000000
vt 0.000000 0.000000
vt 1.000000 0.000000
vt 1.000000 1.000000
vt 1.000000 0.000000
vt 0.000000 1.000000
vt 1.000000 0.000000
vt 0.000000 1.000000
vt 1.000000 1.000000
vt 0.000000 1.000000
vt 0.000000 0.000000
vt 1.000000 0.000000
vt 0.000000 0.000000
vt 1.000000 0.000000
vt 0.000000 0.000000
vt 1.000000 0.000000
vt 0.000000 1.000000
vt 0.000000 0.000000
vt 0.000000 0.000000
vt 0.000000 0.000000
vt 1.000000 1.000000
vt 0.000000 0.000000
vt 0.000000 0.000000
vt 1.000000 1.000000
vt 0.000000 1.000000
vt 0.000000 1.000000
vt 0.000000 0.000000
vt 1.000000 0.000000
vt 0.000000 1.000000
vt 1.000000 0.000000
vt 0.000000 1.000000
vt 1.000000 0.000000
vt 0.000000 1.000000
vt 0.000000 0.000000
vt 0.000000 0.000000
vt 1.000000 1.000000
vt 0.000000 1.000000
vt 1.000000 0.000000
vt 0.000000 1.000000
vt 0.000000 0.000000
vt 1.000000 0.000000
vt 0.000000 1.000000
vt 0.000000 0.000000
vt 0.000000 0.000000
vt 1.000000 0.000000
vt 1.000000 1.000000
vt 1.000000 0.000000
vt 0.000000 1.000000
vt 0.000000 0.000000
vt 0.000000 0.000000
vt 1.000000 1.000000
vt 0.000000 1.000000
vt 0.000000 0.000000
vt 1.000000 1.000000
vt 0.000000 1.000000
vt 0.000000 0.000000
vt 1.000000 0.000000
vt 0.000000 0.000000
vt 1.000000 0.000000
vt 0.000000 0.000000
vt 1.000000 0.000000
vt 1.000000 1.000000
vt 1.000000 1.000000
vt 1.000000 1.000000
vt 1.000000 1.000000
vt 1.000000 0.000000
vt 1.000000 1.000000
vt 1.000000 1.000000
vt 1.000000 0.000000
vt 1.000000 1.000000
vt 1.000000 0.000000
vt 1.000000 1.000000
vt 1.000000 1.000000
vt 1.000000 1.000000
vt 1.000000 1.000000
vt 1.000000 0.000000
vt 1.000000 1.000000
vt 1.000000 1.000000
vt 1.000000 1.000000
vt 1.000000 0.000000
vt 1.000000 0.000000
vn -0.9998 -0.0208 0.0000
vn -0.0000 -0.0208 -0.9998
vn 0.9998 -0.0208 -0.0000
vn 0.0000 -0.0208 0.9998
vn 0.9624 0.2717 -0.0000
vn 0.0000 -0.1011 0.9949
vn 0.9949 -0.1011 -0.0000
vn 0.0000 -1.0000 -0.0000
vn -0.9624 0.2717 -0.0000
vn 0.0000 0.2717 0.9624
vn 0.0000 -0.1011 -0.9949
vn 0.0000 0.2717 -0.9624
vn -0.9949 -0.1011 -0.0000
vn 0.0000 -0.0000 1.0000
vn -0.1286 -0.0000 0.9917
vn 0.0000 1.0000 0.0000
vn -0.0000 0.0000 -1.0000
vn 0.1286 0.0000 -0.9917
vn 0.1286 -0.0000 0.9917
vn -0.1286 0.0000 -0.9917
vn 0.0000 0.0025 1.0000
vn -0.3081 0.0440 0.9503
vn -0.2497 0.0025 0.9683
vn 0.3081 0.0440 -0.9503
vn 0.0000 0.0511 -0.9987
vn 0.0000 0.1031 -0.9947
vn 0.0000 0.0025 -1.0000
vn 0.2497 0.0025 -0.9683
vn 0.3081 0.0440 0.9503
vn 0.0000 0.0511 0.9987
vn -0.3081 0.0440 -0.9503
vn 0.0000 0.1031 0.9947
vn 0.2497 0.0025 0.9683
vn -0.2497 0.0025 -0.9683
s 1
f 2/1/1 3/2/2 1/3/1
f 4/4/2 7/5/3 3/6/2
f 8/7/3 5/8/4 7/9/3
f 6/10/4 1/11/1 5/12/4
f 7/9/5 11/13/6 12/14/7
f 8/15/8 4/4/8 15/16/8
f 12/17/7 11/18/6 13/19/8
f 1/20/9 11/21/6 5/12/10
f 7/22/5 10/23/11 3/6/12
f 1/3/9 10/24/11 9/25/13
f 9/26/13 10/27/11 13/19/8
f 11/28/6 9/29/13 13/19/8
f 10/30/11 12/31/7 13/19/8
f 6/10/14 16/32/15 14/33/15
f 6/34/8 8/7/8 15/16/8
f 4/35/8 2/1/8 14/36/8
f 2/37/8 6/10/8 14/36/8
f 18/38/16 23/39/16 22/40/16
f 4/4/17 19/41/18 15/42/18
f 15/43/19 18/44/14 6/34/14
f 14/45/20 17/46/17 4/35/17
f 22/47/21 24/48/22 20/49/23
f 17/50/16 20/51/16 21/52/16
f 18/53/16 20/54/16 16/55/16
f 17/56/16 23/57/16 19/58/16
f 27/59/24 25/60/25 28/61/26
f 21/62/27 27/63/24 23/64/28
f 22/65/21 27/66/29 26/67/30
f 21/68/27 24/69/31 25/70/25
f 26/71/30 27/72/29 28/61/32
f 25/73/25 24/74/31 28/61/26
f 24/75/22 26/76/30 28/61/32
f 2/1/1 4/77/2 3/2/2
f 4/4/2 8/78/3 7/5/3
f 8/7/3 6/79/4 5/8/4
f 6/10/4 2/80/1 1/11/1
f 7/9/5 5/81/10 11/13/6
f 1/20/9 9/82/13 11/21/6
f 7/22/5 12/83/7 10/23/11
f 1/3/9 3/84/12 10/24/11
f 6/10/14 18/85/14 16/32/15
f 18/38/16 19/86/16 23/39/16
f 4/4/17 17/87/17 19/41/18
f 15/43/19 19/88/19 18/44/14
f 14/45/20 16/89/20 17/46/17
f 22/47/21 26/90/30 24/48/22
f 17/50/16 16/91/16 20/51/16
f 18/53/16 22/92/16 20/54/16
f 17/56/16 21/93/16 23/57/16
f 21/62/27 25/94/25 27/63/24
f 22/65/21 23/95/33 27/66/29
f 21/68/27 20/96/34 24/69/31
